<svg xmlns="http://www.w3.org/2000/svg" width="43" height="54" viewBox="0 0 43 54">
  <g fill="none" fill-rule="evenodd">
    <rect width="43" height="54"/>
    <path fill="#1D1D1F" fill-rule="nonzero" d="M41.5,14 L1.5,14 C0.671572875,14 0,14.6715729 0,15.5 L0,41.5 C0,42.3284271 0.671572875,43 1.5,43 L41.5,43 C42.3284271,43 43,42.3284271 43,41.5 L43,15.5 C43,15.1021753 42.8419647,14.7206444 42.5606602,14.4393398 C42.2793556,14.1580353 41.8978247,14 41.5,14 Z M27,43.5 L27,50 L16,50 L16,43.5 L27,43.5 Z M42,15 L42,38 L1,38 L1,15 L42,15 Z"/>
  </g>
</svg>
