<svg xmlns="http://www.w3.org/2000/svg" viewBox="0 0 35 54">
  <defs>
    <style>
      .a {
        fill: #1d1d1f;
      }
    </style>
  </defs>
  <title>mac_pro_large_</title>
  <path class="a" d="M35,47V13H33V9.25a.75.75,0,0,0-1.5,0V13H3.5V9.25a.75.75,0,0,0-1.5,0V13H0V47H1.75v1.5a.5.5,0,0,1-.5.5H0v1H5V49H3.75a.5.5,0,0,1-.5-.5V47h28.5v1.5a.5.5,0,0,1-.5.5H30v1h5V49H33.75a.5.5,0,0,1-.5-.5V47ZM17.947,24.92a1.97,1.97,0,0,1,1.33-.7,2.131,2.131,0,0,1-.47,1.47,1.691,1.691,0,0,1-1.34.65A1.937,1.937,0,0,1,17.947,24.92Zm2.59,7.33c-.38.56-.76,1.12-1.38,1.13-.6.01-.8-.36-1.48-.36s-.91.35-1.47.37c-.6.02-1.05-.6-1.43-1.16-.77-1.14-1.36-3.21-.57-4.61a2.186,2.186,0,0,1,1.86-1.15c.59-.01,1.13.39,1.48.39s.98-.47,1.73-.43a2.091,2.091,0,0,1,1.65.91,2.08,2.08,0,0,0-.97,1.75,2.02,2.02,0,0,0,1.21,1.86A6.131,6.131,0,0,1,20.537,32.25Z"/>
</svg>
