<svg height="54" viewBox="0 0 50.0005 54" width="50.0005" xmlns="http://www.w3.org/2000/svg"><path d="m.0003 0h50v54h-50z" fill="none"/><path d="m19.0005 45.9996h-17.0005v-35h17.0005c-.1106-1.5092.2026-3.037 1.3826-4h-19.023c-.7749.0774-1.3639.7313-1.3601 1.51v40.1701c.011.7399.6199 1.3309 1.3599 1.32h19.0229c-1.1803-.9636-1.4927-2.4911-1.3823-4.0001zm-4.0005-37.5799c.8633.0038.8632 1.3163 0 1.32-.8629-.0038-.8629-1.3164 0-1.32zm0 40.52v.01c-1.4062-.0239-1.406-2.1163 0-2.14 1.405.0246 1.4047 2.1057 0 2.13zm32.0005-41.94h-24c-1.6569 0-3 1.3431-3 3v37c0 1.6564 1.3425 2.9991 2.9988 2.9999h24.0012c1.6569.0001 3-1.343 3-2.9999v-37c0-1.6569-1.3431-3-3-3zm1 40c0 .5522-.4478 1-1 1-4.8938-.0004-19.3387.0003-24 0-.5522 0-1-.4478-1-1v-37c0-.5523.4478-1 1-1 4.5895-.0011 19.185.0008 24 0 .5522 0 1 .4477 1 1z" fill="#1d1d1f"/></svg>