<svg xmlns="http://www.w3.org/2000/svg" viewBox="0 0 32 54">
  <defs>
    <style>
      .a {
        fill: #1d1d1f;
      }
    </style>
  </defs>
  <title>ipad_ios_large_</title>
  <g>
    <path class="a" d="M13.632,25.73a1.049,1.049,0,0,0-1.2-1.129h-1.1v2.238h1.1A1.051,1.051,0,0,0,13.632,25.73Z"/>
    <path class="a" d="M21.714,28.852c.707,0,1.145-.559,1.145-1.473S22.418,25.9,21.714,25.9s-1.137.559-1.137,1.477S21,28.852,21.714,28.852Z"/>
    <path class="a" d="M31.367,22.285a6.777,6.777,0,0,0-4.3-3.857,13.945,13.945,0,0,0-3.867-.407H8.8a13.945,13.945,0,0,0-3.867.407,6.777,6.777,0,0,0-4.3,3.857A12.535,12.535,0,0,0,0,26.821v14.4a12.538,12.538,0,0,0,.633,4.536,6.777,6.777,0,0,0,4.3,3.857,13.943,13.943,0,0,0,3.867.407H23.2a13.943,13.943,0,0,0,3.867-.407,6.777,6.777,0,0,0,4.3-3.857A12.535,12.535,0,0,0,32,41.221v-14.4A12.535,12.535,0,0,0,31.367,22.285Zm-9.891,2.9a1.41,1.41,0,0,1,1.3.746h.062V23.594h.84V29.5h-.8v-.672h-.066a1.477,1.477,0,0,1-1.336.742c-1.082,0-1.766-.852-1.766-2.2S20.4,25.184,21.476,25.184ZM10.46,23.863h2.207a1.856,1.856,0,1,1-.028,3.711h-1.3V29.5H10.46Zm-1.75-.422a.529.529,0,1,1-.531.531A.531.531,0,0,1,8.71,23.441Zm.418,1.817V29.5H8.292V25.258Zm1.809,18.4c-3.295,0-5.357-2.312-5.357-6s2.062-6.011,5.357-6.011,5.358,2.32,5.358,6.011S14.233,43.658,10.937,43.658ZM15.156,28.3c0-.762.57-1.2,1.582-1.266l1.152-.07V26.6c0-.465-.3-.727-.871-.727-.469,0-.793.176-.887.484H15.32c.086-.715.773-1.18,1.738-1.18,1.066,0,1.668.531,1.668,1.422v2.9h-.809v-.6h-.066a1.426,1.426,0,0,1-1.277.672A1.28,1.28,0,0,1,15.156,28.3Zm6.531,15.353c-2.538,0-4.229-1.3-4.366-3.312H18.77c.17,1.249,1.33,2.007,3,2.007,1.578,0,2.723-.83,2.723-1.975,0-.975-.645-1.619-2.256-1.974l-1.289-.282c-2.328-.508-3.336-1.562-3.336-3.215,0-1.917,1.692-3.263,4.1-3.263,2.32,0,4,1.386,4.061,3.36h-1.45a2.362,2.362,0,0,0-2.651-2.055c-1.449,0-2.569.709-2.569,1.893,0,.919.62,1.547,2.207,1.894l1.289.282c2.425.531,3.384,1.5,3.384,3.143C25.981,42.312,24.289,43.658,21.687,43.658Z"/>
    <path class="a" d="M10.937,32.983c-2.376,0-3.867,1.8-3.867,4.673s1.491,4.664,3.867,4.664,3.867-1.8,3.867-4.664S13.314,32.983,10.937,32.983Z"/>
    <path class="a" d="M17.89,27.566l-1.039.07c-.586.039-.852.246-.852.633s.332.625.789.625a1.013,1.013,0,0,0,1.1-.961Z"/>
  </g>
</svg>
