<svg enable-background="new 0 0 38 54" height="54" viewBox="0 0 38 54" width="38" xmlns="http://www.w3.org/2000/svg"><path d="m0 0h38v54h-38z" fill="none"/><path d="m16.0814 46.1712c.0292.6064.0538 1.0435.0741 1.3585-3.1219-.5848-6.5242-1.3553-6.7416-1.3989-4.8455-.97-8.7617-8.3865-8.7617-17.4365 0-8.7639 3.6816-16.0663 8.3053-17.3979.2773-.0799 4.1898-.9293 7.1976-1.5018-.0205.3143-.0449.7488-.0739 1.3503-3.5649 3.182-6.5242 9.8181-6.5242 17.5131 0 7.6953 2.9595 14.3315 6.5244 17.5132zm21.9186-25.5147v4.96h-1v10.9588c0 2.0848-1.0013 3.9311-2.5444 5.0996v.8123c0 .7847-.6361 1.4207-1.4207 1.4207h-.1542c-.0135 1.145-.0745 2.5458-.2625 3.6629-.386 2.293-.4912 2.2249-.6047 2.2703s-.3406-.0227-.3406-.0227-5.1052.1816-6.4462.1816-6.4462-.1816-6.4462-.1816-.2271.0681-.3405.0227c-.1135-.0454-.2952.1816-.6811-2.1114-.2051-1.2188-.2524-2.6938-.2285-3.8218h-.1541c-.7846 0-1.4207-.636-1.4207-1.4207v-.5236c-1.7756-1.1375-2.9556-3.1231-2.9556-5.3883v-16.16c0-2.2652 1.18-4.2509 2.9556-5.3883v-1.0851c0-1.0657.6361-1.9296 1.4207-1.9296h.1562c.0041-.6722.0621-1.5212.2264-2.4974.3859-2.293.5676-2.066.6811-2.1114s.3405.0227.3405.0227 5.1051-.1816 6.4462-.1816 6.4462.1816 6.4462.1816.2271-.0681.3406-.0227.2951-.1816.6811 2.1114c.1643.9761.2223 1.8252.2264 2.4974h.114c.7846 0 1.4207.8639 1.4207 1.9296v1.3738c1.543 1.1684 2.5443 3.0147 2.5443 5.0995v.2412h1zm-4.9651-7.6443h-.1586c-.0361.306-.0864.4996-.1364.5211-.1589.0681-.3179-.0908-.4541-.1135s-.9081-.0454-.9081-.0454l-.0543.6841c.7588.0873 1.4768.3074 2.1321.6351v-.7519c.0001-.6098-.3126-.9295-.4206-.9295zm-16.0793 1.4889c.6734-.2787 1.4061-.4396 2.1721-.4722l-.0519-.6544s-.7719.0227-.9081.0454-.2952.1816-.454.1135c-.05-.0214-.1003-.215-.1364-.5211h-.2008c-.1081 0-.4207.3196-.4207.9296v.5592zm.6202 28.4067c.0055-.0712.0109-.1409.017-.2033-.2163-.0626-.4308-.1298-.6367-.215.0015.2309.1891.4183.4202.4183zm15.8798-.611c-.1852.0926-.3843.1585-.579.233.0021.116.0038.2415.0052.3781h.1531c.232 0 .4207-.1887.4207-.4207zm2.5444-21.8816c0-2.9776-2.4224-5.4-5.4-5.4h-11.2c-2.9776 0-5.4 2.4224-5.4 5.4v16.16c0 2.9775 2.4224 5.4 5.4 5.4h4.54c3.0622-.071 6.4207-.1419 7.9987-.1748 2.331-.5978 4.0613-2.7104 4.0613-5.2251v-10.9588-4.96z" fill="#f5f5f7"/></svg>