<?xml version="1.0"?>
<svg xmlns="http://www.w3.org/2000/svg" xmlns:xlink="http://www.w3.org/1999/xlink" xmlns:svgjs="http://svgjs.com/svgjs" version="1.1" width="512" height="512" x="0" y="0" viewBox="0 0 511.999 511.999" style="enable-background:new 0 0 512 512" xml:space="preserve" class=""><g transform="matrix(-1,-1.2246467991473532e-16,1.2246467991473532e-16,-1,511.99926757812494,511.99822998046886)">
<path xmlns="http://www.w3.org/2000/svg" style="" d="M0.156,483.415c0.047,0.45,0.131,0.886,0.195,1.33c0.082,0.579,0.15,1.163,0.264,1.738  c0.104,0.518,0.245,1.021,0.374,1.533c0.125,0.493,0.233,0.99,0.381,1.476c0.152,0.503,0.343,0.992,0.518,1.484  c0.173,0.482,0.332,0.968,0.529,1.444c0.195,0.465,0.419,0.909,0.632,1.362c0.228,0.484,0.446,0.975,0.7,1.451  c0.233,0.436,0.499,0.85,0.753,1.275c0.277,0.465,0.537,0.932,0.842,1.383c0.319,0.478,0.672,0.926,1.015,1.383  c0.279,0.37,0.535,0.749,0.829,1.108c1.33,1.618,2.812,3.102,4.432,4.43c0.359,0.296,0.744,0.554,1.114,0.831  c0.455,0.343,0.901,0.696,1.374,1.013c0.45,0.302,0.92,0.565,1.381,0.839c0.425,0.254,0.842,0.52,1.277,0.755  c0.476,0.252,0.96,0.467,1.444,0.694c0.455,0.216,0.903,0.442,1.37,0.636c0.472,0.195,0.949,0.351,1.429,0.522  c0.499,0.18,0.992,0.372,1.499,0.527c0.48,0.142,0.962,0.25,1.446,0.37c0.52,0.133,1.036,0.279,1.567,0.385  c0.556,0.11,1.112,0.173,1.673,0.254c0.465,0.066,0.924,0.154,1.393,0.203c1.04,0.102,2.085,0.156,3.132,0.156h224.281  c17.517,0,31.718-14.201,31.718-31.718s-14.201-31.718-31.718-31.718H108.292L502.709,54.146c12.387-12.385,12.387-32.467,0-44.856  c-12.385-12.385-32.469-12.385-44.856,0L63.436,403.705V255.998c0-17.517-14.201-31.718-31.718-31.718S0,238.481,0,255.998v224.268  C0,481.319,0.053,482.37,0.156,483.415z" fill="#3d6deb" data-original="#3d6deb" class=""/>
<g xmlns="http://www.w3.org/2000/svg">
</g>
<g xmlns="http://www.w3.org/2000/svg">
</g>
<g xmlns="http://www.w3.org/2000/svg">
</g>
<g xmlns="http://www.w3.org/2000/svg">
</g>
<g xmlns="http://www.w3.org/2000/svg">
</g>
<g xmlns="http://www.w3.org/2000/svg">
</g>
<g xmlns="http://www.w3.org/2000/svg">
</g>
<g xmlns="http://www.w3.org/2000/svg">
</g>
<g xmlns="http://www.w3.org/2000/svg">
</g>
<g xmlns="http://www.w3.org/2000/svg">
</g>
<g xmlns="http://www.w3.org/2000/svg">
</g>
<g xmlns="http://www.w3.org/2000/svg">
</g>
<g xmlns="http://www.w3.org/2000/svg">
</g>
<g xmlns="http://www.w3.org/2000/svg">
</g>
<g xmlns="http://www.w3.org/2000/svg">
</g>
</g></svg>
