<svg height="54" viewBox="0 0 79 54" width="79" xmlns="http://www.w3.org/2000/svg"><path d="m0 0h79v54h-79z" fill="none"/><path d="m24.8174 49.2501c.1174.0657.3222.1741.5854.2999h-17.5324l-.5.45h-3l-.5-.45h-2.8703c-.516-.0454-1.009-.4821-1-1v-.55h5.0002s-.0007-29.1132 0-29.1497c.0189-.9581.8132-1.8693 1.75-1.85l44.4996.0095c.978.0118 1.7385.8403 1.75 1.8405v3.1497h-1.4998v-2.9605c0-.416-.0932-.4392-.5-.4392 0 0-18.9976-.0699-19-.0305-.032.5417-.4703 1.0632-1 1.0305h-4c-.5455-.038-.9629-.4725-1-1.0305l-19 .0305c-.4067 0-.5.1272-.5.4392v28.9605h17.3483l.2831.4958c.0214.0482.0557.1183.0984.1954.107.1928.2858.438.5873.5588zm52.1826-1.2501c-.0527.0923-.3516.3232-.436.3232 0 0-2.0703 1.2505-4.6387 1.4219-2.5669.1714-8.5903.252-8.5903.252h-25.8887c-.0003.0007-.0186.0011-.0532.0011-.5449 0-5.1297-.0897-7.5425-.2531-.4673-.0316-.9089-.1063-1.3339-.1951-1.0854-.2267-2.0003-.5836-2.5891-.8588-.4474-.209-.7162-.368-.7162-.368-.084 0-.1588-.2309-.2114-.3232h5v-23.5c0-.9956.522-1.5 1.5-1.5h39c.9775 0 1.5.5415 1.5 1.5v23.5zm-7-23h-38v23h38z" fill="#1d1d1f"/></svg>