<svg id="Outlines" xmlns="http://www.w3.org/2000/svg" width="84" height="54" viewBox="0 0 84 54"><rect width="84" height="54" fill="none"/><path d="M33.5281,50H1.5179A1.5181,1.5181,0,0,1,0,48.4817V47.5H5s0-26.6961.0015-27.4323c.0009-.5075.0022-.8347.0041-1.0819.0022-.2439.0053-.4109.0094-.5453a5.5844,5.5844,0,0,1,.0455-.5987A2.2625,2.2625,0,0,1,5.257,17.16a1.9219,1.9219,0,0,1,.9039-.903,2.27,2.27,0,0,1,.6815-.196,5.5469,5.5469,0,0,1,.6-.0458c.1349-.0044.3021-.0075.5465-.01.2476-.0023.5751-.0035,1.0825-.0044C9.4142,16.0007,9.8221,16,10.3987,16H47.6013c.5766,0,.9845.0007,1.3272.0012.5074.0009.8349.0021,1.0825.0044.2444.0021.4116.0052.5465.01a5.5426,5.5426,0,0,1,.6.0458,2.27,2.27,0,0,1,.6815.196,1.9234,1.9234,0,0,1,.9041.903,2.2683,2.2683,0,0,1,.1963.6815,5.5844,5.5844,0,0,1,.0455.5987c.0041.1344.0072.3014.0094.5453.0019.2472.0032.5744.0041,1.0819,0,.1111,0,.8206.0005,1.9325h-1.5c0-1.1011,0-1.8088-.0005-1.93-.0009-.5024-.0022-.827-.0041-1.0721-.002-.2275-.0048-.3845-.0087-.5109a4.1105,4.1105,0,0,0-.0317-.4363.7884.7884,0,0,0-.0631-.2412.4247.4247,0,0,0-.2-.1991.7964.7964,0,0,0-.2433-.0635,4.1546,4.1546,0,0,0-.4393-.0319c-.1259-.004-.2824-.0068-.511-.0089-.2454-.0022-.57-.0034-1.0718-.0043L47.6007,17.5l-15.8225,0v.0148a.9967.9967,0,0,1-.9967.9967h-3.563a.9967.9967,0,0,1-.9967-.9967V17.5l-15.8224,0-1.3254.0012c-.5022.0009-.8263.0021-1.0713.0043-.229.0021-.3855.0049-.5116.0089a4.1609,4.1609,0,0,0-.4392.0319.7944.7944,0,0,0-.2431.0635.4226.4226,0,0,0-.1159.0815.4292.4292,0,0,0-.0843.1191.7818.7818,0,0,0-.0628.2409,4.1463,4.1463,0,0,0-.0316.4382c-.0038.1233-.0066.28-.0086.5095-.0019.2434-.0032.568-.0041,1.0714C6.5,20.8809,6.5,47.3631,6.5,47.4969V47.5H32v1.1917l.147.24A3.049,3.049,0,0,0,33.5281,50ZM78.99,47H84v1.41c-.64,1.03-4.47,1.57-5.84,1.57H38.45c-1.35,0-4.82-.54-5.45-1.57V47h5V24.49c0-.0134,0-.0269,0-.04A1.47,1.47,0,0,1,39.47,23l.0205,0H77.5l.02,0,.02,0a1.47,1.47,0,0,1,1.45,1.49ZM77,24.98H39.99V47H77Z" fill="#1d1d1f"/></svg>