<svg enable-background="new 0 0 56 54" height="54" viewBox="0 0 56 54" width="56" xmlns="http://www.w3.org/2000/svg"><path d="m0 0h56v54h-56z" fill="none"/><path d="m43.7905 16.2618c0-.2761.2239-.5.5-.5h2c.2761 0 .5.2239.5.5s-.2239.5-.5.5h-2c-.2762 0-.5-.2238-.5-.5zm4.5632.5h2c.2762 0 .5-.2239.5-.5s-.2238-.5-.5-.5h-2c-.2761 0-.5.2239-.5.5s.2239.5.5.5zm-4.0632 23.912h2c.2761 0 .5-.2239.5-.5s-.2239-.5-.5-.5h-2c-.2761 0-.5.2239-.5.5s.2238.5.5.5zm4.0632 0h2c.2762 0 .5-.2239.5-.5s-.2238-.5-.5-.5h-2c-.2761 0-.5.2239-.5.5s.2239.5.5.5zm3.6463-2.7307 2.7615.0085c0 2.7705-3.1414 4.0772-3.1414 4.0772-.0543 1.6783-.1167 2.9609-.1628 3.2776-.1041.7392-.4976 1.2902-1.0305 1.5299-.427.1923-2.5867.2847-4.8211.2847-2.4332 0-4.9548-.1096-5.4199-.319-.5328-.2397-.9265-.598-1.0305-1.3381-.0461-.3176-.1529-3.0741-.1638-3.4348 0 0-.3284-.1367-.7734-.4148-.0252.0172-.0475.038-.0729.0549-.5525.3889-.8242.7322-.8242.7322-.0646.0895-.4981.6627-.6422 1.1113-.0341.1107-.2187.5396-.315 1.1068-.1243.7321-.1788 1.6006-.1788 1.6006l-.1533 2.0178s.0341.6044-.5364.9109-1.0897.3916-1.0897.3916-1.9526.4596-5.3862.4596c-3.4337 0-5.3861-.4598-5.3861-.4598s-.5193-.0851-1.0897-.3916-.5364-.9109-.5364-.9109l-.1533-2.0178s-.0544-.8685-.1788-1.6006c-.0963-.5671-.2809-.9961-.315-1.1068-.1441-.4485-.5776-1.0218-.6422-1.1113 0 0-.2723-.3443-.8267-.734-.0068-.0045-.0126-.0101-.0194-.0146-.7605 1.4482-.5511 3.5848-.6597 4.0443-.12.5284-.547.8649-1.158 1.0359-1.026.2859-3.848.3881-5.848.3881-2.001 0-4.787-.1022-5.813-.3881-.612-.171-1.143-.4732-1.263-1.0016-.232-1.0206-.101-2.0837-.283-3.1332-.3651-2.0955-1.072-2.7523-2.256-3.7349-.355-.2949-.638-.6216-.852-.9708h3.2609v-19.5481l-3.2668.0045c.209-.3555.475-.6768.784-.9518.051-.0461.461-.4578.461-.4578s1.488-1.2323 1.883-4.019c.098-.6903.184-1.89.299-2.3759.119-.5284.545-.865 1.158-1.0359 1.026-.2868 3.888-.3873 5.888-.3873s4.518.2126 5.45.3339c.846.1095 1.505.4678 1.683 1.2703.232 1.045.147 2.1262.421 3.1667.0699.2664.1639.5266.2672.7837.4556-.3436.6906-.6304.6906-.6304.0646-.0895.4981-.6627.6422-1.1113.0341-.1107.2187-.5396.315-1.1068.1243-.7321.1788-1.6006.1788-1.6006l.1533-2.0178s-.0341-.6044.5364-.9109c.5704-.3065 1.0897-.3916 1.0897-.3916s1.9525-.4598 5.3861-.4598 5.3862.4598 5.3862.4598.5193.0851 1.0897.3916.5364.9109.5364.9109l.1533 2.0178s.0544.8685.1788 1.6006c.0963.5671.2809.9961.315 1.1068.1441.4485.5776 1.0218.6422 1.1113 0 0 .2501.3079.7411.6689.506-.3333.8988-.5008.8988-.5008.0543-1.6783.1167-2.9609.1628-3.2776.1041-.7392.4976-1.2902 1.0305-1.5299.4271-.1923 2.5868-.2847 4.8212-.2847 2.4332 0 4.9547.1096 5.4198.319.5329.2397.9265.598 1.0305 1.3381.0461.3176.1529 3.0741.1638 3.4348 0 0 3.1721 1.3068 3.1721 4.1362l-2.7617-.0086zm-12.132-23.927h10.8141c-.0281-.7851-.1135-2.8418-.1476-3.1122-.0483-.343-.1624-.4872-.5087-.643-.2827-.0899-2.1117-.2397-5.0505-.2397-2.7715 0-4.1601.1055-4.4818.2174s-.4216.4176-.4787.8226c-.0319.2191-.0885 1.2177-.1468 2.9549zm-1.0612 1.2948c.3451.2997.6559.6349.9305 1.001-.0018-.0173-.0101-.0323-.0101-.05 0-.2761.2239-.5.5-.5h2c.2761 0 .5.2239.5.5s-.2239.5-.5.5h-2c-.0748 0-.1442-.0187-.2078-.0482.141.2213.2669.4521.3802.6909l9.6519.03h1.8057v.0056l1.8513.0057c-.5562-1.5972-2.4396-2.3916-2.4619-2.4008l-.5392-.2222h-10.8688v-.0002l-.5322.2214c-.0064.0028-.2112.095-.4996.2668zm3.2126 5.0601v5h-.9993v10.9588c0 .5452-.0704 1.0735-.1988 1.5786l10.1787.0316v-19.6025l-10.2563-.0319c.1733.579.2764 1.1883.2764 1.8242v.2412zm-24.3876-2.9485c.382-.8109.9277-1.526 1.5967-2.108-.1804-.4034-.3348-.8079-.4413-1.2128-.165-.6252-.212-1.2359-.259-1.8267-.037-.4822-.073-.9382-.169-1.3725-.038-.1701-.101-.456-.845-.5519-.872-.1131-3.323-.3248-5.308-.3248-2.52 0-4.873.1456-5.593.3474-.421.1176-.457.2769-.474.3528-.06.2543-.12.8215-.172 1.3219-.038.3592-.075.713-.114.9871-.358 2.5288-1.563 3.9466-2.023 4.4062zm-.6124 18.9073v-16.2c0-.6279.1006-1.23.2697-1.8027l-11.2891.0157v19.5497h11.215c-.1258-.5004-.1956-1.0231-.1956-1.5627zm2.0718 4.6976c-.6719-.619-1.213-1.3751-1.5717-2.2302h-13.5603c.932.8658 1.547 1.7715 1.875 3.6597.095.542.113 1.0659.131 1.5725.019.5383.037 1.0468.145 1.5191.0229.1013.255.2289.578.3203.732.2036 3.001.3475 5.5179.3475 2.496 0 4.8311-.1457 5.552-.3475.421-.1176.457-.2778.474-.3538.011-.067.017-.3203.021-.5239.0225-1.0145.0637-2.6946.8381-3.9637zm18.2653-.0504c.2682-.1586.5227-.3373.7586-.5383.5326-.4537.9749-1.0084 1.2994-1.6348.1483-.2862.274-.5856.3698-.8986.1525-.4988.2358-1.0274.2358-1.5754v-10.9589h-.0007v-5h.0007v-.2412c0-.6422-.1185-1.2557-.3251-1.8275-.1138-.3151-.2551-.6163-.423-.9012-.3386-.575-.7783-1.0823-1.2979-1.4957-.2427-.1931-.5002-.3683-.7742-.518-.767-.4189-1.646-.6576-2.5798-.6576h-11.2007c-1.089 0-2.1019.3266-2.951.8833-.2781.1823-.5371.3901-.7764.6191-.3653.3495-.6803.7495-.9365 1.1888-.1667.286-.3068.5884-.4194.9044-.2014.5652-.3167 1.1709-.3167 1.8044v16.2c0 .5435.0825 1.0676.2325 1.5627.0955.3151.2211.6166.3698.9047.269.5208.6185.9926 1.0347 1.3978.2321.2259.4822.4331.7516.6147.8609.5806 1.8972.92 3.0114.92h11.2007c.9993.0001 1.9328-.2776 2.7364-.7527zm3.1586-2.1696c-.1334.3165-.2957.6163-.4762.9044.0582-.0237.1215-.038.1883-.038h2c.2761 0 .5.2239.5.5s-.2239.5-.5.5h-2c-.2761 0-.5-.2239-.5-.5 0-.0004.0002-.0007.0002-.001-.2279.302-.4841.5798-.7609.8369.2158.1202.3618.1848.3679.1873l.5391.2221h10.8647l-.0294.89h-10.807c.031.8429.1117 2.7687.1447 3.0293.0483.343.1624.4872.5087.643.2827.0899 2.1118.2397 5.0505.2397 2.7715 0 4.2198-.1334 4.4818-.2174.2315-.1056.4216-.4176.4787-.8226.0333-.2289.0936-1.2984.1545-3.1812l.0187-.5793.5352-.2226c.0197-.0084 1.8677-.8092 2.4279-2.3495z" fill="#f5f5f7"/></svg>