<svg enable-background="new 0 0 23 54" height="54" viewBox="0 0 23 54" width="23" xmlns="http://www.w3.org/2000/svg"><path d="m0 0h23v54h-23z" fill="none"/><path clip-rule="evenodd" d="m2.3 17c-1.2703 0-2.3 1.0308-2.3 2.3023v28.3953c0 1.2716 1.0297 2.3024 2.3 2.3024h18.4c1.2703 0 2.3-1.0308 2.3-2.3023v-28.3954c0-1.2715-1.0297-2.3023-2.3-2.3023zm18.7 30.2564c0 .4107-.3272.7436-.7308.7436h-17.5384c-.4036 0-.7308-.3329-.7308-.7436v-27.5128c0-.4107.3272-.7436.7308-.7436h17.5385c.4035 0 .7307.3329.7307.7436z" fill="#1d1d1f" fill-rule="evenodd"/></svg>