<svg xmlns="http://www.w3.org/2000/svg" viewBox="0 0 31 54">
  <defs>
    <style>
      .a {
        fill: #1d1d1f;
      }
    </style>
  </defs>
  <title>ipad_accessories_large_</title>
  <g>
    <path class="a" d="M17.92,7H10.58A1.58,1.58,0,0,0,9,8.56V48.44A1.57,1.57,0,0,0,10.58,50h7.34A1.51,1.51,0,0,1,17,48.44V8.56A1.64,1.64,0,0,1,17.92,7Z"/>
    <path class="a" d="M8.92,7H1.58A1.58,1.58,0,0,0,0,8.56V48.44A1.57,1.57,0,0,0,1.58,50H8.92A1.51,1.51,0,0,1,8,48.44V8.56A1.64,1.64,0,0,1,8.92,7Z"/>
    <path class="a" d="M31,48.68V8.51A1.47,1.47,0,0,0,29.69,7H27v4h2V46H27v4h2.7A1.3,1.3,0,0,0,31,48.7Z"/>
    <path class="a" d="M24.69,5h-.05a54.493,54.493,0,0,0-5.27,2A2.24,2.24,0,0,0,18,8.93v39.2A2.23,2.23,0,0,0,19.36,50s4.67,1.91,5.27,2A1.35,1.35,0,0,0,26,50.67V6.35A1.33,1.33,0,0,0,24.69,5Z"/>
  </g>
</svg>
